<svg width="104" height="23" viewBox="0 0 104 23" fill="none" xmlns="http://www.w3.org/2000/svg">
<path d="M30.3544 16.9624H33.184C35.9449 16.9624 38.4585 15.2729 38.4585 11.8252C38.4585 8.4187 35.9174 6.71546 33.1702 6.71546H30.3544V16.9624ZM32.2225 8.39123H33.2252C34.9971 8.40497 36.5905 9.57252 36.5905 11.8252C36.5905 14.1053 34.9971 15.2866 33.2252 15.2866H32.2225V8.39123ZM43.9581 16.9624H45.5515V12.4708C45.5515 10.9186 44.5625 9.90218 42.5433 9.90218C41.8153 9.90218 41.3208 9.95712 40.4692 10.1219L40.5242 11.523C41.3621 11.3582 41.7879 11.3032 42.2274 11.3032C43.2439 11.3032 43.8482 11.6878 43.8482 12.8829V13.2675C43.4224 12.9378 42.8043 12.7043 42.0214 12.7043C40.4692 12.7043 39.4802 13.707 39.4802 14.9707C39.4802 16.2619 40.4692 17.2096 41.884 17.2096C42.8181 17.2096 43.5186 16.7976 43.9581 16.2893V16.9624ZM42.5433 16.1795C41.7467 16.1795 41.2384 15.6026 41.2384 14.9295C41.2384 14.2702 41.7467 13.7345 42.5433 13.7345C43.3263 13.7345 43.862 14.2702 43.862 14.9295C43.862 15.6163 43.2988 16.1795 42.5433 16.1795ZM50.2222 11.523V10.0945H49.3706V7.40225L47.6673 7.91048V10.0945H46.8157V11.523H47.6673V16.9624H49.3706V11.523H50.2222ZM55.6148 16.9624H57.2082V12.4708C57.2082 10.9186 56.2192 9.90218 54.2 9.90218C53.472 9.90218 52.9775 9.95712 52.1259 10.1219L52.1809 11.523C53.0187 11.3582 53.4446 11.3032 53.8841 11.3032C54.9006 11.3032 55.5049 11.6878 55.5049 12.8829V13.2675C55.0791 12.9378 54.461 12.7043 53.6781 12.7043C52.1259 12.7043 51.1369 13.707 51.1369 14.9707C51.1369 16.2619 52.1259 17.2096 53.5407 17.2096C54.4747 17.2096 55.1753 16.7976 55.6148 16.2893V16.9624ZM54.2 16.1795C53.4034 16.1795 52.8951 15.6026 52.8951 14.9295C52.8951 14.2702 53.4034 13.7345 54.2 13.7345C54.983 13.7345 55.5187 14.2702 55.5187 14.9295C55.5187 15.6163 54.9555 16.1795 54.2 16.1795ZM65.6151 14.174C65.6151 13.0339 65.0107 12.0724 63.953 11.5642C64.7634 11.0285 65.2167 10.1906 65.2167 9.32527C65.2167 7.88301 64.42 6.71546 62.0712 6.71546H58.9394V16.9624H62.3597C64.6398 16.9624 65.6151 15.5888 65.6151 14.174ZM61.6866 8.2264C63.0877 8.2264 63.5135 8.80331 63.5272 9.55878C63.5272 10.4241 62.8129 11.0285 61.6317 11.0285H60.8075V8.2264H61.6866ZM61.824 12.3884C63.0327 12.3884 63.7332 12.9927 63.7332 13.968C63.7332 14.7509 63.2937 15.4515 61.8652 15.4515H60.8075V12.3884H61.824ZM74.1812 16.0696L73.2471 15.0119C72.6565 15.5476 71.901 15.9185 70.8983 15.9185C69.6071 15.9185 68.7418 15.1905 68.5907 13.9268H74.2773V13.4872C74.2773 11.3582 72.6565 9.76482 70.5824 9.76482C68.3434 9.76482 66.7776 11.3856 66.7776 13.5284C66.7776 15.6712 68.3572 17.2921 70.8708 17.2921C72.3406 17.2921 73.4532 16.7564 74.1812 16.0696ZM70.5687 11.1659C71.5302 11.1659 72.217 11.7977 72.4505 12.773H68.6594C68.8929 11.784 69.5934 11.1659 70.5687 11.1659ZM79.8135 16.9624H81.4069V12.4708C81.4069 10.9186 80.4179 9.90218 78.3987 9.90218C77.6707 9.90218 77.1762 9.95712 76.3246 10.1219L76.3796 11.523C77.2175 11.3582 77.6433 11.3032 78.0828 11.3032C79.0993 11.3032 79.7036 11.6878 79.7036 12.8829V13.2675C79.2778 12.9378 78.6597 12.7043 77.8768 12.7043C76.3246 12.7043 75.3356 13.707 75.3356 14.9707C75.3356 16.2619 76.3246 17.2096 77.7394 17.2096C78.6735 17.2096 79.374 16.7976 79.8135 16.2893V16.9624ZM78.3987 16.1795C77.6021 16.1795 77.0938 15.6026 77.0938 14.9295C77.0938 14.2702 77.6021 13.7345 78.3987 13.7345C79.1817 13.7345 79.7174 14.2702 79.7174 14.9295C79.7174 15.6163 79.1542 16.1795 78.3987 16.1795ZM90.0233 10.0945H88.2377L86.1636 15.2179L84.1444 10.0945H82.2626L85.1196 16.9624H87.1663L90.0233 10.0945ZM97.7226 16.0696L96.7886 15.0119C96.1979 15.5476 95.4425 15.9185 94.4397 15.9185C93.1486 15.9185 92.2832 15.1905 92.1321 13.9268H97.8188V13.4872C97.8188 11.3582 96.1979 9.76482 94.1238 9.76482C91.8849 9.76482 90.319 11.3856 90.319 13.5284C90.319 15.6712 91.8986 17.2921 94.4123 17.2921C95.882 17.2921 96.9946 16.7564 97.7226 16.0696ZM94.1101 11.1659C95.0716 11.1659 95.7584 11.7977 95.9919 12.773H92.2008C92.4343 11.784 93.1348 11.1659 94.1101 11.1659ZM100.869 13.3636C100.869 12.773 101.556 11.9213 102.654 11.9213C102.751 11.9213 102.902 11.9351 102.984 11.9763V10.067H102.751C101.748 10.067 101.034 11.0148 100.786 11.5505V10.0945H99.1518V16.9624H100.869V13.3636Z" fill="#333333"/>
<path d="M11.4465 22.8931C17.7683 22.8931 22.8931 17.7683 22.8931 11.4465C22.8931 5.12479 17.7683 0 11.4465 0C5.12479 0 0 5.12479 0 11.4465C0 17.7683 5.12479 22.8931 11.4465 22.8931Z" fill="#0081C2"/>
<path d="M6.10474 6.10498H10.6834V16.7884H7.53936C7.53936 16.7884 6.12931 15.1192 6.10474 11.4109V6.10498Z" fill="white"/>
<path d="M16.7881 6.86816H12.2097V17.5516H15.3535C15.3535 17.5516 16.7638 15.8821 16.7883 12.1741L16.7881 6.86816Z" fill="white"/>
</svg>
