<svg width="59" height="28" viewBox="0 0 59 28" fill="none" xmlns="http://www.w3.org/2000/svg">
<path d="M0 0H3.89391V0.323842C3.89391 4.71587 3.89391 9.10919 3.8874 13.5012C3.8874 14.1658 3.79116 14.8304 3.79636 15.5535C3.80064 15.5169 3.80848 15.4807 3.81978 15.4456C4.68205 13.4843 6.02034 11.8235 7.19215 10.0573C7.87755 9.02466 8.58376 8.00761 9.28867 6.98146H13.7405L9.15471 13.2138C10.9755 15.9697 12.7768 18.7126 14.6028 21.4867H10.2095C9.14734 19.724 8.07264 17.9401 6.98536 16.1349L3.2007 21.5075H0V0Z" fill="#0077FF"/>
<path d="M59 6.98406V21.4841H56.0607V19.3785C55.902 19.5853 55.8006 19.7322 55.6809 19.8727C54.6275 21.1733 53.2346 21.7715 51.5945 21.8158C49.4694 21.873 47.6421 21.1824 46.2297 19.5515C45.2803 18.4551 44.7613 17.1545 44.5585 15.733C44.3074 13.9694 44.4362 12.2397 45.197 10.6035C46.2557 8.33015 48.0388 7.01917 50.5359 6.70964C51.9756 6.53146 53.3477 6.71874 54.5794 7.55241C55.1673 7.96613 55.6662 8.49376 56.0464 9.10399V6.98406H59ZM55.7564 14.2738C55.7668 12.107 54.5091 10.3785 52.5049 9.92205C50.8038 9.53188 49.3003 9.92205 48.1792 11.341C47.4301 12.2852 47.2025 13.3998 47.2688 14.5846C47.4353 17.7996 50.1548 19.3616 52.8899 18.4772C54.6665 17.9036 55.7486 16.2727 55.7564 14.2738Z" fill="#0077FF"/>
<path d="M35.5523 27.7984H31.0706C32.1279 25.5562 33.171 23.3452 34.214 21.1317C32.1188 16.4184 30.0262 11.7155 27.9219 6.98276H32.3711C32.6208 7.61223 32.8731 8.24691 33.1229 8.88289C34.0658 11.2733 35.023 13.6586 35.936 16.062C36.135 16.5823 36.1727 17.1753 36.2897 17.7619C36.3193 17.5126 36.3627 17.2651 36.4198 17.0206C36.5889 16.4275 36.7488 15.8292 36.9699 15.2557C38.0013 12.5765 39.0509 9.90514 40.0913 7.23247C40.1251 7.14533 40.1667 7.06339 40.2058 6.97235H44.4976C41.5081 13.9382 38.5263 20.8802 35.5523 27.7984Z" fill="#0077FF"/>
<path d="M26.1128 8.77496C24.705 7.43263 22.8261 6.69739 20.8812 6.72781C18.9362 6.75822 17.0812 7.55184 15.7161 8.93753L15.6666 8.98825L15.6588 8.99605C14.7959 9.89233 14.2647 11.0564 14.1533 12.2956C14.0419 13.5348 14.3568 14.7749 15.0461 15.8107C15.7354 16.8466 16.7576 17.6161 17.9437 17.9919C19.1297 18.3678 20.4086 18.3275 21.5686 17.8776C20.7847 17.9969 19.983 17.869 19.2751 17.5117C18.5671 17.1544 17.9881 16.5853 17.6185 15.8837C17.2489 15.1821 17.1071 14.3828 17.2127 13.5969C17.3183 12.811 17.6662 12.0775 18.208 11.4983L18.2327 11.4723L18.2756 11.4281C19.1223 10.5601 20.2223 9.98283 21.4176 9.7791C22.6129 9.57538 23.842 9.75572 24.9284 10.2942C26.0149 10.8327 26.9027 11.7017 27.4643 12.7763C28.026 13.851 28.2326 15.0759 28.0546 16.2753C28.4563 14.9679 28.4876 13.5746 28.1448 12.2505C27.802 10.9263 27.0986 9.7232 26.1128 8.77496V8.77496Z" fill="#0077FF"/>
<path d="M15.8731 19.4357C17.2809 20.7784 19.1601 21.5139 21.1054 21.4835C23.0506 21.4531 24.9059 20.6592 26.2711 19.2731L26.3205 19.2224L26.3283 19.2146C27.1913 18.3183 27.7224 17.1543 27.8339 15.9151C27.9453 14.6759 27.6303 13.4358 26.9411 12.3999C26.2518 11.3641 25.2296 10.5946 24.0435 10.2187C22.8574 9.84287 21.5786 9.8832 20.4185 10.333C21.2023 10.2144 22.0036 10.3428 22.711 10.7004C23.4184 11.058 23.997 11.627 24.3662 12.3285C24.7354 13.0299 24.8771 13.8289 24.7714 14.6145C24.6657 15.4002 24.3181 16.1334 23.7766 16.7123L23.709 16.7826C22.6523 17.8665 21.2098 18.4885 19.6962 18.5129C18.1827 18.5372 16.7209 17.962 15.6298 16.9126C14.9734 16.2808 14.4764 15.5021 14.1798 14.6406C13.8831 13.7791 13.7953 12.8595 13.9235 11.9574C13.5272 13.2625 13.4996 14.6517 13.8437 15.9715C14.1877 17.2913 14.8901 18.4902 15.8731 19.4357V19.4357Z" fill="#004991"/>
</svg>
